<?xml version="1.0" encoding="utf-8" ?>
<svg baseProfile="full" height="200mm" version="1.1" viewBox="0,0,200,200" width="200mm" xmlns="http://www.w3.org/2000/svg" xmlns:ev="http://www.w3.org/2001/xml-events" xmlns:xlink="http://www.w3.org/1999/xlink"><defs /><rect fill="#1a1a1a" height="200" width="200" x="0" y="0" /><text alignment-baseline="middle" fill="#e1ed5e" style="dominant-baseline: central; font-size:9.0px; font-family:Arial;" text-anchor="middle" x="100.0" y="100.0">2024</text><line stroke="#e1ed5e" stroke-width="0.3" x1="100.0" x2="100.0" y1="15.0" y2="10.0" /><path d="M 100.0 14.0 a86.0,86.0 0 0,1 42.35913384403234,11.155469271406648" fill="none" id="id1" stroke="none" /><text fill="#e1ed5e" style="font-size:6.75px; font-family:Arial;" text-anchor="middle"><textPath startOffset="22.145653131862478" xlink:href="#id1">January</textPath></text><path d="M 103.23170211078529 79.25015418208739 l 2.977927302519501 -19.120429503082153 a40.3509399100257,40.3509399100257 0 0,0 0.6835112904261834,0.11247152273307809 l -3.305716095998755 19.066491981853407" fill="#ff0000" stroke="none" /><path d="M 103.58742460773223 79.30868818359171 l 8.214072635731357 -47.376588158038956 a69.08338688946014,69.08338688946014 0 0,0 1.1667370389688585,0.21261835455579722 l -9.026144408251268 47.22860162955179" fill="#33ff50" stroke="none" /><path d="M 103.94208987418118 79.37332000966035 l 8.341472307674495 -43.646107884443005 a65.43605398457584,65.43605398457584 0 0,0 1.1015178598349327,0.2203344217738608 l -9.089486653040385 43.49648406600628" fill="#48ff2c" stroke="none" /><path d="M 104.29559338865022 79.4440306129975 l 9.871272226786134 -47.23761104594316 a69.25799325192803,69.25799325192803 0 0,0 1.1616794368032117,0.25318262640644096 l -10.68071408020848 47.061196961403006" fill="#33ff52" stroke="none" /><path d="M 104.9986988182912 79.60360301121754 l 12.069881939378094 -49.24923716997384 a71.70669987146529,71.70669987146529 0 0,0 1.1930448273983458,0.3032673297591539 l -12.913532060001835 49.03478460837942" fill="#37ff7b" stroke="none" /><path d="M 105.3480935250658 79.69241777938227 l 16.04428057519741 -60.92274666185318 a84.0,84.0 0 0,0 1.3912743962612288,0.3791980234234318 l -17.08773637239333 60.63834814428561" fill="#4dd2ff" stroke="none" /><path d="M 105.69591212413111 79.78721728523813 l 16.154509124870405 -57.3266538683572 a80.55932679948586,80.55932679948586 0 0,0 1.3278478276628722,0.38651715037107226 l -17.13621696491488 57.04089302368361" fill="#47fffe" stroke="none" /><path d="M 106.38641147887787 79.99465700312896 l 17.736811089494417 -55.56030811506483 a79.3227426092545,79.3227426092545 0 0,0 1.2936302729090599,0.42524196546735604 l -18.68796410005122 55.24764522819545" fill="#45ffed" stroke="none" /><path d="M 107.06938296918511 80.22567764915836 l 14.455377522987895 -40.43426365336984 a63.940512532133674,63.940512532133674 0 0,0 1.030388718555687,0.37837300982454425 l -15.147355393197707 40.18015979453657" fill="#5dff2a" stroke="none" /><line stroke="#e1ed5e" stroke-width="0.3" x1="143.13028292997686" x2="145.6673583964461" y1="26.7553504044142" y2="22.446841604673864" /><path d="M 143.63769802327073 25.89364864446614 a86.0,86.0 0 0,1 29.32050498858742,28.57503671076993" fill="none" id="id2" stroke="none" /><text fill="#e1ed5e" style="font-size:6.75px; font-family:Arial;" text-anchor="middle"><textPath startOffset="20.669276256404974" xlink:href="#id2">February</textPath></text><path d="M 114.65682725009322 84.96080404539774 l 30.80076671233839 -31.604300046307873 a65.13070372750641,65.13070372750641 0 0,0 0.7939993524696767,0.7872130739959948 l -31.33875798493803 31.070906962083217" fill="#4cff2c" stroke="none" /><path d="M 116.35404254752997 86.82634096563983 l 16.608260673570065 -13.378439161541143 a42.326437982005146,42.326437982005146 0 0,0 0.45094500228298506,0.5697542791735766 l -16.83547210649461 13.09136493845289" fill="#ff2903" stroke="none" /><path d="M 117.42321728460499 88.27688183743584 l 22.483760511829395 -15.1280774907093 a48.09941356041131,48.09941356041131 0 0,0 0.455056094128516,0.68901292566966 l -22.740141044878634 14.73988468670058" fill="#ff990e" stroke="none" /><path d="M 117.62189284568427 88.57770195909679 l 46.96812024695637 -30.44416809134697 a76.97188303341903,76.97188303341903 0 0,0 0.7091760766289482,1.114942583476134 l -47.4838140152112 29.633411833192163" fill="#41ffcb" stroke="none" /><line stroke="#e1ed5e" stroke-width="0.3" x1="172.87174338648825" x2="177.1583165268699" y1="56.24261187166439" y2="53.66864786411523" /><path d="M 173.72905801456457 55.72781907015455 a86.0,86.0 0 0,1 12.242430191666344,42.057860355516425" fill="none" id="id3" stroke="none" /><text fill="#e1ed5e" style="font-size:6.75px; font-family:Arial;" text-anchor="middle"><textPath startOffset="22.145653131862474" xlink:href="#id3">March</textPath></text><path d="M 118.53625476483649 90.13048839642627 l 43.84193547447911 -23.34336123332403 a70.66918380462724,70.66918380462724 0 0,0 0.560951557731328,1.0756985761851356 l -44.23619510118538 22.587316414034394" fill="#35ff6a" stroke="none" /><path d="M 118.70294669586156 90.45014215332178 l 41.9141028680191 -21.40163957421747 a68.06189749357327,68.06189749357327 0 0,0 0.5223915497613334,1.0451330357488409 l -42.27531433099217 20.678974682304876" fill="#31ff3e" stroke="none" /><path d="M 118.8641267826498 90.77261029715802 l 40.23099339350866 -19.678994869553122 a65.786110218509,65.786110218509 0 0,0 0.487508728006447,1.018705741944108 l -40.56288137947502 18.98547662554391" fill="#43ff2d" stroke="none" /><path d="M 119.0197475246899 91.09779779509293 l 28.19958710762184 -13.198830646992686 a52.13560411311053,52.13560411311053 0 0,0 0.3724357405301647,0.8138393070081457 l -28.422007313007057 12.712802357769856" fill="#ffe215" stroke="none" /><path d="M 119.16976305983485 91.42560881287824 l 40.542478084410526 -18.134134767654327 a65.41327924164526,65.41327924164526 0 0,0 0.4496886280312488,1.0289755844694997 l -40.84780059445875 17.435497113408978" fill="#48ff2c" stroke="none" /><path d="M 119.58574465831526 92.42381321644754 l 39.790624159420304 -15.39186822482726 a63.66384158097686,63.66384158097686 0 0,0 0.38552796188564803,1.022658722378934 l -40.048982805120396 14.706541222254167" fill="#61ff29" stroke="none" /><path d="M 119.71291397450082 92.76114493625339 l 43.1457536339392 -15.843718365341935 a66.96280526992288,66.96280526992288 0 0,0 0.386980698139923,1.0824538862766926 l -43.41137450212307 15.100729522684325" fill="#32ff2f" stroke="none" /><path d="M 119.83427380445688 93.10060997987247 l 44.171412147104256 -15.365110068924752 a67.76751285347044,67.76751285347044 0 0,0 0.37276836563609406,1.10202343640528 l -44.42866593431272 14.60458495804531" fill="#30ff39" stroke="none" /><path d="M 120.05942366710727 93.78553927170692 l 41.84068973366054 -12.96235263333592 a64.80257872750641,64.80257872750641 0 0,0 0.3200743780415058,1.0654235059504604 l -42.05704043170567 12.242191523794736" fill="#51ff2b" stroke="none" /><path d="M 120.26092885502905 94.47779374421319 l 41.692948512692546 -11.363598517441124 a64.21380944730078,64.21380944730078 0 0,0 0.28073824689822857,1.06600885056282 l -41.881876240395506 10.646209162505505" fill="#59ff2a" stroke="none" /><path d="M 120.43855184770803 95.1765574152323 l 43.80053248436563 -10.336806403643616 a66.00373553984576,66.00373553984576 0 0,0 0.2507800567952347,1.1049832022656305 l -43.97152340271854 9.58338886743896" fill="#40ff2d" stroke="none" /><path d="M 120.51834098615036 95.52812308129327 l 43.14571292440384 -9.403407317288567 a65.1585395244216,65.1585395244216 0 0,0 0.22880666018437248,1.0949226979256252 l -43.30077729541258 8.661368168077537" fill="#4cff2c" stroke="none" /><path d="M 120.592083275326 95.88100663000786 l 41.68540379618733 -8.338248227059115 a63.51116645244216,63.51116645244216 0 0,0 0.20466838644389773,1.070911482502475 l -41.822398474913385 7.621434179523325" fill="#64ff29" stroke="none" /><path d="M 120.65975698304385 96.23510406497455 l 40.68800388157225 -7.414709695944445 a62.3580896529563,62.3580896529563 0 0,0 0.18287306343394896,1.054763233261542 l -40.80929176249843 6.715153429762311" fill="#75ff27" stroke="none" /><path d="M 120.7213421655516 96.59031103205396 l 31.70458570735025 -5.216977513134668 a53.13094473007712,53.13094473007712 0 0,0 0.14036312070995147,0.9012319246667087 l -31.78947032019847 4.671957406536518" fill="#fff417" stroke="none" /><path d="M 120.93736805541906 98.37931529534042 l 38.9287367415365 -3.0133304263330314 a60.04518798200513,60.04518798200513 0 0,0 0.07072762389398982,1.0283641288389187 l -38.97472832659555 2.3446228733397785" fill="#98ff23" stroke="none" /><path d="M 120.96210409425399 98.7389718711861 l 44.087272352154294 -2.6521808263506266 a65.16697461439588,65.16697461439588 0 0,0 0.05759026041747931,1.1172356667373844 l -44.126304202028344 1.8949733662365116" fill="#4cff2c" stroke="none" /><path d="M 120.98066250479742 99.09900007780936 l 44.34878552036327 -1.9045276713240087 a65.38966098971721,65.38966098971721 0 0,0 0.038534167710368564,1.1218802484224315 l -44.37494437507049 1.1429411583374571" fill="#48ff2c" stroke="none" /><line stroke="#e1ed5e" stroke-width="0.3" x1="184.99686870605535" x2="189.99668451229388" y1="99.2704041080226" y2="99.22748670261217" /><path d="M 185.99683186730306 99.26182062694052 a86.0,86.0 0 0,1 -10.086455211305974,41.156179273409016" fill="none" id="id4" stroke="none" /><text fill="#e1ed5e" style="font-size:6.75px; font-family:Arial;" text-anchor="middle"><textPath startOffset="21.40746469413373" xlink:href="#id4">April</textPath></text><path d="M 120.99922638620191 99.81974689727618 l 46.46551185584394 -0.39885053514019303 a67.4672236503856,67.4672236503856 0 0,0 0.0,1.1582072757280342 l -46.46551185584394 -0.39885053514018737" fill="#30ff34" stroke="none" /><path d="M 120.99922638620191 100.18025310272382 l 32.32038707689929 0.27743165127617087 a53.321577763496144,53.321577763496144 0 0,0 -0.015713534821729526,0.915234626202247 l -32.310862110478894 -0.832213193447489" fill="#fff717" stroke="none" /><path d="M 120.99303781780057 100.54070618675476 l 44.005609921174425 1.1334284129245813 a65.02020404884318,65.02020404884318 0 0,0 -0.038316446506351826,1.1155415331219736 l -43.97966878767123 -1.8886762106106656" fill="#4eff2c" stroke="none" /><path d="M 120.86939407059847 102.33845913500097 l 44.836169692083075 5.02398633329842 a66.11676574550128,66.11676574550128 0 0,0 -0.13606803232281425,1.126838501032795 l -44.74331957350059 -5.792918511254624" fill="#3eff2d" stroke="none" /><path d="M 120.82617615685814 102.69636545807757 l 43.473471589643324 5.628511266501982 a64.8363190874036,64.8363190874036 0 0,0 -0.15238227968283127,1.1025622666372292 l -43.37044479340528 -6.373961841339296" fill="#50ff2b" stroke="none" /><path d="M 120.77682067341334 103.0534771498775 l 33.75064997084601 4.960183278251339 a55.113190874035986,55.113190874035986 0 0,0 -0.14559988539001753,0.9348557105142545 l -33.66052859331773 -5.538827170697044" fill="#e8ff1a" stroke="none" /><path d="M 120.592083275326 104.11899336999214 l 43.89796094438372 8.78082162297528 a65.76755302056556,65.76755302056556 0 0,0 -0.23094523396268984,1.105156547627247 l -43.74075799959667 -9.533094621887935" fill="#43ff2d" stroke="none" /><path d="M 120.43855184770803 104.8234425847677 l 42.82851909315071 10.107413889972145 a65.00502088688945,65.00502088688945 0 0,0 -0.2656305538649445,1.08386330641777 l -42.64870101276947 -10.841133020998015" fill="#4eff2b" stroke="none" /><path d="M 120.35273937422433 105.17358676015961 l 41.75352710472096 10.61358331412242 a64.08137853470436,64.08137853470436 0 0,0 -0.28015926828665805,1.0638103744697194 l -41.56517835562957 -11.328774192964943" fill="#5bff2a" stroke="none" /><path d="M 120.16314734710363 105.8691983318838 l 42.227928288800754 12.291934488448792 a64.980559125964,64.980559125964 0 0,0 -0.32095346289365295,1.0683496935164294 l -42.01069850590347 -13.015021785555946" fill="#4eff2b" stroke="none" /><path d="M 119.71291397450082 107.23885506374661 l 42.35711038528066 15.554117640587286 a66.1226703084833,66.1226703084833 0 0,0 -0.40041784607109576,1.0621559092054902 l -42.08386185539513 -16.278941829986934" fill="#3eff2d" stroke="none" /><line stroke="#e1ed5e" stroke-width="0.3" x1="174.33088141563837" x2="178.70328620479359" y1="141.23008692659167" y2="143.65538615756765" /><path d="M 175.20536237346943 141.71514677278685 a86.0,86.0 0 0,1 -30.301960400862466,31.631185727798858" fill="none" id="id5" stroke="none" /><text fill="#e1ed5e" style="font-size:6.75px; font-family:Arial;" text-anchor="middle"><textPath startOffset="22.145653131862474" xlink:href="#id5">May</textPath></text><line stroke="#e1ed5e" stroke-width="0.3" x1="143.1302829299769" x2="145.66735839644613" y1="173.24464959558577" y2="177.55315839532614" /><path d="M 143.63769802327073 174.10635135553383 a86.0,86.0 0 0,1 -40.68552437913181,11.842963189579606" fill="none" id="id6" stroke="none" /><text fill="#e1ed5e" style="font-size:6.75px; font-family:Arial;" text-anchor="middle"><textPath startOffset="21.407464694133747" xlink:href="#id6">June</textPath></text><line stroke="#e1ed5e" stroke-width="0.3" x1="101.45913802915013" x2="101.54496967792366" y1="184.9874750549273" y2="189.98673829345242" /><path d="M 101.47630435890484 185.9873277026323 a86.0,86.0 0 0,1 -42.54439059252881,-10.42667462771756" fill="none" id="id7" stroke="none" /><text fill="#e1ed5e" style="font-size:6.75px; font-family:Arial;" text-anchor="middle"><textPath startOffset="22.145653131862474" xlink:href="#id7">July</textPath></text><line stroke="#e1ed5e" stroke-width="0.3" x1="58.13341422392154" x2="55.67067388415222" y1="173.97424548756322" y2="178.32567169271397" /><path d="M 57.64086615596768 174.84453072859336 a86.0,86.0 0 0,1 -31.369924170532247,-30.572349798747897" fill="none" id="id8" stroke="none" /><text fill="#e1ed5e" style="font-size:6.75px; font-family:Arial;" text-anchor="middle"><textPath startOffset="22.145653131862474" xlink:href="#id8">August</textPath></text><line stroke="#e1ed5e" stroke-width="0.3" x1="26.387840678322732" x2="22.057713659400548" y1="142.50000000000003" y2="145.00000000000006" /><path d="M 25.521815274538298 143.00000000000003 a86.0,86.0 0 0,1 -11.493303480769221,-40.785679425670985" fill="none" id="id9" stroke="none" /><text fill="#e1ed5e" style="font-size:6.75px; font-family:Arial;" text-anchor="middle"><textPath startOffset="21.40746469413373" xlink:href="#id9">September</textPath></text><line stroke="#e1ed5e" stroke-width="0.3" x1="15.003131293944662" x2="10.003315487706104" y1="100.72959589197737" y2="100.7725132973878" /><path d="M 14.003168132696942 100.73817937305945 a86.0,86.0 0 0,1 10.791469493833604,-42.45332614584628" fill="none" id="id10" stroke="none" /><text fill="#e1ed5e" style="font-size:6.75px; font-family:Arial;" text-anchor="middle"><textPath startOffset="22.145653131862435" xlink:href="#id10">October</textPath></text><line stroke="#e1ed5e" stroke-width="0.3" x1="26.387840678322718" x2="22.05771365940052" y1="57.49999999999999" y2="54.99999999999999" /><path d="M 25.521815274538284 56.99999999999999 a86.0,86.0 0 0,1 29.574782752854787,-30.34633250058573" fill="none" id="id11" stroke="none" /><text fill="#e1ed5e" style="font-size:6.75px; font-family:Arial;" text-anchor="middle"><textPath startOffset="21.40746469413373" xlink:href="#id11">November</textPath></text><line stroke="#e1ed5e" stroke-width="0.3" x1="56.869717070023135" x2="54.33264160355391" y1="26.7553504044142" y2="22.446841604673864" /><path d="M 56.362301976729285 25.89364864446614 a86.0,86.0 0 0,1 42.16139366436587,-11.88097634709845" fill="none" id="id12" stroke="none" /><text fill="#e1ed5e" style="font-size:6.75px; font-family:Arial;" text-anchor="middle"><textPath startOffset="22.145653131862474" xlink:href="#id12">December</textPath></text></svg>